<?xml version="1.0" encoding="UTF-8"?>
<svg version="1.1" viewBox="0 0 666.67 666.67" xmlns="http://www.w3.org/2000/svg">
<defs>
<clipPath id="a">
<path d="m0 700h700v-700h-700z"/>
</clipPath>
</defs>
<g transform="matrix(1.3333 0 0 -1.3333 -133.33 800)">
<g clip-path="url(#a)">
<g transform="translate(600,350)">
<path d="m0 0c0 138.07-111.93 250-250 250s-250-111.93-250-250c0-117.24 80.715-215.62 189.61-242.64v166.24h-51.552v76.396h51.552v32.919c0 85.092 38.508 124.53 122.05 124.53 15.838 0 43.167-3.105 54.347-6.211v-69.254c-5.901 0.621-16.149 0.932-28.882 0.932-40.993 0-56.832-15.528-56.832-55.9v-27.018h81.659l-14.028-76.396h-67.631v-171.77c123.79 14.951 219.71 120.35 219.71 248.17" fill="#0866ff"/>
</g>
<g transform="translate(447.92 273.6)">
<path d="m0 0 14.029 76.396h-81.659v27.019c0 40.372 15.838 55.899 56.831 55.899 12.733 0 22.981-0.31 28.882-0.931v69.253c-11.18 3.106-38.509 6.212-54.347 6.212-83.539 0-122.05-39.441-122.05-124.53v-32.919h-51.552v-76.396h51.552v-166.24c19.343-4.798 39.568-7.362 60.394-7.362 10.254 0 20.358 0.632 30.288 1.831v171.77z" fill="#fff"/>
</g>
</g>
</g>
</svg>